<svg width="128" height="128" viewBox="0 0 128 128" fill="none" xmlns="http://www.w3.org/2000/svg">
<g clip-path="url(#clip0_9_15)">
<path d="M45 26L31 45.1509V61L45.6667 45.1509L46.3333 52.4151H59V45.1509L45 26Z" fill="#1CB7E4"/>
<path d="M31 84L45 64.8491L45 49L31 64.8491L17 49V64.8491L31 84Z" fill="#1F2937"/>
<path d="M46 56.4615L49.4091 53H76V62H55.5455V66.1538H72.5909V75.8462C72.5909 76.4 61.2273 76.0769 55.5455 75.8462V89H46V56.4615Z" fill="#1CB7E4"/>
<path d="M77 56.2224V88.8079C77.1538 90.3595 77.5823 90.9604 79.0204 91.5447H85.0816C86.6738 90.7388 87.317 90.1659 87.7755 88.8079V71.0184L102.592 90.1763C104.765 90.4579 105.797 90.4604 107.306 90.1763C108.867 89.7263 109.516 89.3172 110 88.1237V52.5447C106.475 50.6158 104.432 50.3584 100.571 52.5447V72.3869L85.0816 52.5447H82.3878C81.2755 52.5447 78.5907 53.8749 77 56.2224Z" fill="#1F2937"/>
</g>
<defs>
<clipPath id="clip0_9_15">
<rect width="128" height="128" fill="white"/>
</clipPath>
</defs>
</svg>
